<svg width="453" height="453" viewBox="0 0 453 453" fill="none" xmlns="http://www.w3.org/2000/svg">
<circle cx="226.5" cy="226.5" r="221" fill="#64A2FF" stroke="white" stroke-width="11"/>
<path d="M102.551 154.838L226.837 86.9219L351.124 154.838V298.82L226.837 366.736L102.551 298.82V154.838Z" fill="#527FC3"/>
<path d="M66.5547 134.799L225.818 41.4141L387.118 134.799M66.5547 134.799L225.818 223.769M66.5547 134.799V319.53L225.818 411.896M387.118 134.799L225.818 223.769M387.118 134.799V319.53L225.818 411.896M225.818 223.769V411.896" stroke="white" stroke-width="5"/>
<mask id="mask0_7088_5345" style="mask-type:alpha" maskUnits="userSpaceOnUse" x="0" y="0" width="453" height="453">
<circle cx="226.5" cy="226.5" r="226.5" fill="#D9D9D9"/>
</mask>
<g mask="url(#mask0_7088_5345)">
<line y1="-2.5" x2="46.1411" y2="-2.5" transform="matrix(0.866906 -0.498471 -0.498471 -0.866906 380 136)" stroke="white" stroke-width="5"/>
<line x1="77.7538" y1="141.167" x2="37.7538" y2="118.167" stroke="white" stroke-width="5"/>
<path d="M182.431 98.126C178.177 96.8744 174.59 95.4561 174.507 94.7054C174.507 94.0381 174.924 93.2874 175.591 92.9538C176.258 92.6202 181.096 93.6216 186.351 95.2069C194.192 97.5431 196.528 98.8779 200.365 102.715C203.702 106.052 205.788 109.639 208.124 115.811C211.044 123.736 211.461 124.32 213.463 123.653C214.714 123.236 220.72 122.903 226.725 122.903C232.731 122.904 238.737 123.238 239.904 123.572C241.906 124.239 242.49 123.321 246.243 114.23C249.495 106.64 251.247 103.554 254.166 101.302C256.251 99.7171 262.006 96.965 267.011 95.2972C271.849 93.6294 276.77 92.5454 277.854 92.7957C278.855 93.1295 279.606 93.8803 279.522 94.4641C279.356 95.1314 274.852 96.9661 269.43 98.5505C264.008 100.302 258.17 102.97 256.502 104.472C254.834 105.973 251.998 110.811 250.163 115.148C248.245 119.568 247.078 123.405 247.578 123.906C248.079 124.406 248.996 124.156 249.664 123.489C250.331 122.822 252.916 122.405 255.502 122.655C258.561 122.934 261.119 124.102 263.176 126.159C265.512 128.328 266.43 130.58 266.514 133.667C266.681 136.169 266.264 138.588 265.763 139.088C265.096 139.589 265.263 141.924 266.014 144.01C266.848 146.178 267.266 150.266 267.183 153.018C266.933 155.771 265.598 159.774 264.18 161.693C262.763 163.778 259.26 167.281 256.507 169.533C253.755 171.785 250.502 174.203 249.251 174.787C247.166 175.871 247.416 176.288 265.268 193.806L286.954 189.137L292.459 182.131C295.461 178.294 300.215 173.207 302.801 170.788C307.221 166.868 307.555 166.701 306.554 169.537C305.887 171.205 301.634 177.461 288.957 194.476L280.199 198.229C275.361 200.23 271.357 202.232 271.357 202.732C271.357 203.233 274.611 204.484 285.621 207.821L294.88 202.901C299.967 200.149 306.807 196.646 310.06 195.061C313.313 193.644 316.149 192.81 316.399 193.561C316.649 194.311 315.398 195.896 313.73 197.064C311.979 198.315 305.389 202.401 299.134 206.321C292.962 210.158 286.539 213.41 284.954 213.493C283.453 213.493 282.118 213.994 282.119 214.494C282.119 214.995 284.037 216.413 286.456 217.664C289.709 219.416 294.714 219.917 305.641 219.668C313.815 219.501 320.488 219.836 320.572 220.586C320.572 221.254 318.153 222.338 315.317 222.838C312.398 223.422 305.892 224.255 300.887 224.755C292.963 225.505 289.96 225.005 278.449 221C270.441 218.33 264.769 216.995 264.435 217.829C263.935 218.663 264.853 220.248 266.605 221.833C268.189 223.418 278.366 230.759 289.211 238.267C300.055 245.775 317.572 258.288 328.083 266.13C338.593 273.972 353.358 285.4 361.033 291.573C369.375 298.247 386.392 313.763 403.743 330.614C423.346 349.55 434.942 361.479 439.947 367.819C443.951 372.991 447.955 378.162 448.79 379.33C449.791 380.832 449.707 382.25 448.623 383.334C447.622 384.335 443.201 384.752 437.696 384.417C432.525 384.083 420.847 382.08 411.755 379.828C402.746 377.658 389.066 373.82 381.392 371.317C373.801 368.731 364.376 365.143 360.372 363.141C356.368 361.139 348.777 356.717 343.438 353.38C337.265 349.376 329.174 342.952 308.736 323.849L305.899 314.173C304.398 308.835 301.978 301.077 300.56 296.99C298.223 289.983 296.805 287.898 278.87 266.126C268.359 253.279 257.764 240.35 255.429 237.347C252.008 232.759 251.091 232.175 250.09 233.176C249.423 233.843 245.92 235.511 235.91 239.013L238.913 240.682C240.498 241.599 244.419 245.02 247.505 248.273C252.344 253.111 253.762 255.363 255.764 261.703C257.099 265.874 258.935 274.215 259.77 280.221C260.604 286.226 261.607 301.408 261.858 313.836C262.276 326.264 261.86 342.53 260.943 349.953C260.193 357.377 258.526 368.22 257.359 373.892C256.275 379.647 253.106 392.326 250.521 402.085C247.937 411.844 243.434 426.857 240.515 435.449C237.596 444.04 233.593 455.55 231.509 460.972C229.34 466.477 227.339 470.981 227.005 471.148C226.588 471.231 223.752 464.558 220.665 456.133C217.494 447.792 212.238 432.026 208.901 421.182C205.48 410.422 201.725 397.326 200.473 392.071C199.138 386.899 197.052 376.64 195.717 369.299C194.298 362.042 192.713 350.114 192.128 343.024C191.544 335.934 191.459 320.67 191.875 309.242C192.374 297.731 193.291 284.135 194.041 278.881C194.791 273.626 196.542 265.702 198.127 261.281C200.295 254.942 201.963 252.106 205.883 248.186C208.719 245.517 212.555 242.348 218.144 239.262L211.387 236.842C207.717 235.507 204.047 233.839 203.379 233.172C202.378 232.171 201.544 232.671 199.209 236.007C197.541 238.343 188.116 249.769 178.358 261.53C168.6 273.29 159.092 285.133 157.174 287.886C155.089 290.805 152.587 297.311 150.919 304.151C149.335 310.406 147.5 316.746 146.833 318.414C146.083 319.998 143.664 323.919 141.245 327.005C138.827 330.424 133.239 335.846 127.817 340.266C122.813 344.436 113.388 351.192 106.966 355.278C100.46 359.282 90.8679 364.369 85.6965 366.537C80.4417 368.622 69.1815 372.375 60.5902 374.793C52.0824 377.294 39.8212 380.38 33.3986 381.797C26.976 383.215 18.1344 384.382 13.8804 384.465C9.62641 384.548 5.53919 384.13 5.03866 383.463C4.53815 382.962 4.62141 381.211 5.28855 379.543C5.95571 377.874 10.376 371.952 15.0466 366.281C20.5512 359.442 32.6449 347.014 50.577 329.75C65.5899 315.237 83.939 298.556 91.6124 292.384C99.2858 286.213 115.383 273.786 127.477 264.862C139.571 255.771 158.254 242.426 168.93 234.92C179.606 227.581 188.948 220.909 189.615 220.242C190.282 219.574 190.282 218.407 189.615 217.739C188.864 216.988 183.359 218.323 175.435 221.074C163.591 225.244 161.589 225.578 151.83 224.492C145.991 223.991 139.401 223.073 137.233 222.406C133.896 221.571 133.479 221.321 134.563 220.237C135.231 219.57 141.904 219.237 149.327 219.487C159.253 219.905 163.841 219.489 167.01 217.654C169.429 216.403 171.348 214.985 171.348 214.485C171.347 213.984 170.013 213.484 168.511 213.483C166.927 213.4 160.587 210.23 154.331 206.309C148.075 202.388 141.401 198.217 139.483 196.965C136.647 195.13 136.229 194.546 137.647 193.962C138.565 193.545 145.905 196.549 168.761 207.728L176.101 205.393C180.105 204.226 183.108 202.891 182.774 202.558C182.357 202.141 178.186 200.138 173.431 198.053C165.34 194.465 164.339 193.798 159.668 187.625C156.915 184.038 152.577 178.199 150.241 174.695C147.905 171.192 146.153 167.939 146.403 167.355C146.57 166.854 149.573 169.357 152.993 172.944C156.58 176.531 161.085 181.703 163.004 184.289C166.424 188.877 167.008 189.127 188.445 194.05L194.367 187.461C197.62 183.875 202.124 179.871 208.379 176.452L203.541 174.116C200.872 172.948 196.618 169.695 193.948 167.025C190.862 163.939 188.609 160.519 187.525 157.265C186.607 154.513 186.106 150.509 186.523 148.257C186.773 146.005 187.523 143.419 188.191 142.418C188.691 141.417 188.607 139.999 187.94 139.332C187.273 138.665 186.939 135.995 187.105 133.493C187.439 130.323 188.523 127.905 190.691 125.736C193.277 123.317 195.029 122.734 206.706 123.068L204.621 117.98C203.619 115.144 201.701 111.056 200.449 108.804C198.948 105.801 197.279 104.133 194.276 102.464C192.107 101.296 186.769 99.2941 182.431 98.126Z" fill="white"/>
</g>
</svg>
